<?xml version="1.0" encoding="UTF-8" standalone="no"?>
<svg
   width="400"
   height="400"
   viewBox="0 0 400 400"
   fill="none"
   version="1.1"
   id="svg132"
   sodipodi:docname="monster_resource_icon.svg"
   inkscape:version="1.2.2 (b0a8486541, 2022-12-01)"
   xmlns:inkscape="http://www.inkscape.org/namespaces/inkscape"
   xmlns:sodipodi="http://sodipodi.sourceforge.net/DTD/sodipodi-0.dtd"
   xmlns="http://www.w3.org/2000/svg"
   xmlns:svg="http://www.w3.org/2000/svg">
  <defs
     id="defs136" />
  <sodipodi:namedview
     id="namedview134"
     pagecolor="#ffffff"
     bordercolor="#000000"
     borderopacity="0.25"
     inkscape:showpageshadow="2"
     inkscape:pageopacity="0.0"
     inkscape:pagecheckerboard="0"
     inkscape:deskcolor="#d1d1d1"
     showgrid="true"
     inkscape:zoom="0.7552773"
     inkscape:cx="725.56133"
     inkscape:cy="178.08029"
     inkscape:window-width="1920"
     inkscape:window-height="1023"
     inkscape:window-x="0"
     inkscape:window-y="0"
     inkscape:window-maximized="1"
     inkscape:current-layer="svg132">
    <inkscape:grid
       type="xygrid"
       id="grid291"
       spacingx="16"
       spacingy="16" />
  </sodipodi:namedview>
  <rect
     x="101"
     y="61"
     width="200"
     height="100"
     rx="21"
     fill="#e0e0e0"
     id="rect86" />
  <rect
     x="266"
     width="35"
     height="114"
     rx="7"
     fill="#e0e0e0"
     id="rect88"
     y="6" />
  <rect
     x="101"
     width="35"
     height="114"
     rx="7"
     fill="#e0e0e0"
     id="rect90"
     y="6" />
  <rect
     x="101"
     width="35"
     height="114"
     rx="7"
     fill="#e0e0e0"
     id="rect92"
     y="6" />
  <rect
     x="164"
     y="152"
     width="74"
     height="35"
     rx="7"
     fill="#e0e0e0"
     id="rect94" />
  <rect
     x="164"
     y="152"
     width="74"
     height="35"
     rx="7"
     fill="#e0e0e0"
     id="rect96" />
  <rect
     x="101"
     y="176"
     width="200"
     height="147"
     rx="21"
     fill="#e0e0e0"
     id="rect98" />
  <path
     d="m 238,183 c 0,-3.866 3.148,-7 7.014,-7 42.24,0 68.732,0 110.972,0 3.866,0 7.014,3.134 7.014,7 v 21 c 0,3.866 -3.134,7 -7,7 H 245 c -3.866,0 -7,-3.134 -7,-7 z"
     fill="#e0e0e0"
     id="path100" />
  <path
     d="m 330,148 c 0,-3.866 3.134,-7 7,-7 h 54 c 3.866,0 7,3.134 7,7 v 21 c 0,3.866 -3.134,7 -7,7 h -54 c -3.866,0 -7,-3.134 -7,-7 z"
     fill="#e0e0e0"
     id="path102" />
  <path
     d="m 391,61 c 3.866,0 7,3.134 7,7 v 101 c 0,3.866 -3.134,7 -7,7 h -21 c -3.866,0 -7,-3.134 -7,-7 V 68 c 0,-3.866 3.134,-7 7,-7 z"
     fill="#e0e0e0"
     id="path104" />
  <path
     d="m 330,169 h 33 v 23 h -33 z"
     fill="#e0e0e0"
     id="path106" />
  <path
     d="m 331,67 c 0,-3.3137 2.686,-6 6,-6 h 55 c 3.314,0 6,2.6863 6,6 v 33 c 0,3.3137 -2.686,6 -6,6 h -55 c -3.314,0 -6,-2.6863 -6,-6 z"
     fill="#e0e0e0"
     id="path108" />
  <path
     d="m 164,183 c 0,-3.866 -3.148,-7 -7.014,-7 -42.24,0 -68.7319,0 -110.972,0 -3.866,0 -7.014,3.134 -7.014,7 v 21 c 0,3.866 3.134,7 7,7 h 111 c 3.866,0 7,-3.134 7,-7 z"
     fill="#e0e0e0"
     id="path110" />
  <path
     d="m 72,148 c 0,-3.866 -3.134,-7 -7,-7 H 11 c -3.86599,0 -7,3.134 -7,7 v 21 c 0,3.866 3.13401,7 7,7 h 54 c 3.866,0 7,-3.134 7,-7 z"
     fill="#e0e0e0"
     id="path112" />
  <path
     d="m 11,61 c -3.86599,0 -7.0000002,3.134 -7,7 v 101 c 0,3.866 3.13401,7 7,7 h 21 c 3.866,0 7,-3.134 7,-7 V 68 c 0,-3.866 -3.134,-7 -7,-7 z"
     fill="#e0e0e0"
     id="path114" />
  <path
     d="M 72,169 H 39 v 23 h 33 z"
     fill="#e0e0e0"
     id="path116" />
  <path
     d="m 71,67 c 0,-3.3137 -2.6863,-6 -6,-6 H 10 c -3.31371,0 -6,2.6863 -6,6 v 33 c 0,3.3137 2.68629,6 6,6 h 55 c 3.3137,0 6,-2.6863 6,-6 z"
     fill="#e0e0e0"
     id="path118" />
  <rect
     x="101"
     y="299"
     width="71"
     height="60"
     fill="#e0e0e0"
     id="rect120" />
  <rect
     x="101"
     y="310"
     width="71"
     height="60"
     fill="#e0e0e0"
     id="rect122" />
  <rect
     x="64"
     y="359"
     width="108"
     height="36"
     rx="6"
     fill="#e0e0e0"
     id="rect124" />
  <rect
     width="71"
     height="60"
     transform="scale(-1,1)"
     fill="#e0e0e0"
     id="rect126"
     x="-301"
     y="299" />
  <rect
     width="71"
     height="60"
     transform="scale(-1,1)"
     fill="#e0e0e0"
     id="rect128"
     x="-301"
     y="310" />
  <rect
     width="108"
     height="36"
     rx="6"
     transform="scale(-1,1)"
     fill="#e0e0e0"
     id="rect130"
     x="-338"
     y="359" />
</svg>
